<svg version="1.1" id="Capa_1" xmlns="http://www.w3.org/2000/svg" xmlns:xlink="http://www.w3.org/1999/xlink" x="0px" y="0px"
	 width="612.385px" height="612.385px" viewBox="0 0 612.385 612.385" style="enable-background:new 0 0 612.385 612.385;"
	 xml:space="preserve">
<g>
	<g>
		<path d="M100.237,425.635c12.589,0,24.639-2.344,35.743-6.604c2.574,11.482,4.901,23.9,6.954,37.205
			c6.45,41.809,7.831,77.488,7.843,77.844l0.149,3.996l2.172,3.359c10.514,16.264,24.903,30.104,42.766,41.133
			c14.114,8.713,30.44,15.701,48.527,20.775c30.676,8.605,56.799,9.041,61.724,9.041c0.378,0,0.504,0,0.877,0
			c4.925,0,31.048-0.436,61.724-9.035c18.087-5.074,34.414-12.062,48.527-20.775c17.869-11.029,32.258-24.869,42.771-41.139
			l2.173-3.359l0.144-3.994c0.012-0.355,1.37-35.773,7.797-77.547c2.046-13.316,4.374-25.752,6.942-37.246
			c10.92,4.105,22.741,6.352,35.078,6.352c55.166,0,100.041-44.881,100.041-100.041c0-40.908-24.68-76.153-59.93-91.643
			c5.354-32.854,2.58-63.283-8.295-89.098c-10.829-25.711-29.501-46.979-55.498-63.22c-25.305-15.805-57.906-26.955-97.055-33.204
			c0.739-3.342,1.341-5.543,1.353-5.583l6.071-22.014l-22.513,3.829c-13.076,2.225-23.057,7.378-30.326,12.767
			c1.674-4.77,3.623-9.207,5.217-12.302L364.262,0l-28.016,4.053c-38.971,5.641-59.104,25.94-68.402,39.436
			C215,46.716,171.454,56.937,138.319,73.9c-31.547,16.155-54.157,38.53-67.199,66.505c-12.451,26.714-15.919,58.594-10.319,93.248
			c-35.611,15.34-60.606,50.774-60.606,91.94C0.195,380.754,45.077,425.635,100.237,425.635z M97.451,152.685
			c10.244-21.979,28.445-39.785,54.105-52.918c31.02-15.885,73.201-25.195,125.363-27.672l8.272-0.39l3.875-7.315
			c2.901-5.475,10.245-16.258,25.86-23.957c-1.324,5.962-2.092,12.216-1.668,18.098l0.929,12.904l12.922,0.567
			c1.64,0.075,4.248,0.144,7.017,0.224c3.675,0.104,8.255,0.235,10.188,0.355l7.521,0.476l4.724-5.87
			c0.78-0.969,1.795-2.109,3.056-3.325l-1.061,9.528l14.258,1.754c77.168,9.493,125.741,36.747,144.378,80.986
			c9.293,22.065,10.336,46.538,6.851,70.128c-1.439,9.745-3.652,19.342-6.375,28.554c-8.828,29.873-23.028,55.738-33.674,69.715
			c-9.235,12.125-17.358,28.451-24.318,48.82c-0.819,2.391-1.622,4.838-2.407,7.344c-0.304,0.975-0.613,1.949-0.918,2.941
			c-1.994,6.574-3.881,13.529-5.663,20.844c-3.521,14.457-6.616,30.338-9.275,47.639c-5.446,35.387-7.367,65.822-7.923,76.691
			c-38.002,53.893-122.835,54.523-126.498,54.523h-0.441h-0.436c-3.658,0-88.496-0.631-126.498-54.523
			c-0.556-10.869-2.477-41.305-7.923-76.691c-2.688-17.484-5.83-33.531-9.396-48.115c-2.763-11.293-5.784-21.709-9.063-31.236
			c-6.919-20.1-14.974-36.227-24.123-48.236c-10.783-14.154-24.943-39.985-33.737-69.755c-2.723-9.229-4.936-18.832-6.369-28.589
			C85.377,201.384,86.759,175.621,97.451,152.685z M583.142,325.594c0,39.143-31.845,70.988-70.987,70.988
			c-9.528,0-18.626-1.891-26.933-5.314c5.108-7.314,13.679-18.906,23.653-29.643c19.783-21.297,32.545-25.809,37.457-23.201
			l13.633-25.66c-7.32-3.893-18.941-6.729-34.437-0.229c7.396-14.148,14.612-31.054,20.076-49.548
			C567.922,274.963,583.142,298.53,583.142,325.594z M67.428,262.655c5.773,19.663,13.529,37.538,21.406,52.242
			c-18.018-9.453-31.353-6.438-39.447-2.139l13.632,25.66c4.884-2.592,17.565,1.863,37.228,22.959
			c10.468,11.23,19.462,23.521,24.53,30.832c-7.647,2.826-15.914,4.373-24.536,4.373c-39.143,0-70.988-31.846-70.988-70.988
			C29.249,298.278,44.755,274.521,67.428,262.655z"/>
		<path d="M127.977,231.377c9.517,21.073,27.505,42.198,53.458,62.79c5.934,4.707,11.678,9.212,17.238,13.524
			c10.055,7.791,19.485,14.928,28.216,21.348c-0.768,1.078-1.542,2.15-2.328,3.24c-7.71,10.674-15.685,21.715-21.371,42.52
			c-5.911,21.635-8.668,51.686-8.668,94.578v1.146l0.178,1.135c0.327,2.047,3.629,20.557,19.228,39.148
			c14.269,17.008,41.923,37.279,92.617,37.279c50.7,0,78.349-20.271,92.617-37.279c15.599-18.592,18.907-37.098,19.228-39.148
			l0.178-1.135v-1.146c0-42.691-2.769-72.68-8.719-94.379c-5.704-20.814-13.696-31.982-21.424-42.783
			c-0.757-1.061-1.508-2.109-2.247-3.152c8.496-6.242,17.657-13.168,27.402-20.713c5.818-4.5,11.844-9.229,18.075-14.17
			c25.952-20.592,43.941-41.717,53.458-62.791c0.36-0.802,0.705-1.605,1.043-2.402c8.065-19.176,9.115-38.501,2.998-56.049
			c-6.553-18.797-20.741-34.797-41.034-46.274c-18.259-10.325-40.089-16.012-61.483-16.012H226.459
			c-21.394,0-43.23,5.687-61.483,16.012c-20.294,11.477-34.482,27.477-41.035,46.274c-6.14,17.617-5.062,37.022,3.09,56.272
			C127.335,229.921,127.65,230.655,127.977,231.377z M226.459,139.694h160.194c34.305,0,66.58,18.396,75.082,42.794
			c8.937,25.637-8.158,57.218-48.121,88.92c-21.079,16.722-39.778,30.911-55.578,42.169l-10.823,7.711l6.725,11.465
			c3.737,6.381,7.372,11.455,10.881,16.361c7.091,9.912,12.697,17.748,17.025,33.555c4.512,16.463,7,40.168,7.562,72.174H223.708
			c0.556-32.189,3.027-55.963,7.516-72.393c4.299-15.719,9.854-23.418,16.894-33.164c3.399-4.707,7.252-10.043,11.059-16.533
			l6.725-11.465l-10.824-7.711c-15.805-11.259-34.505-25.447-55.578-42.169c-39.963-31.702-57.052-63.283-48.121-88.92
			C159.874,158.09,192.155,139.694,226.459,139.694z M376.92,492.117c-14.975,17.852-38.65,26.898-70.363,26.898
			c-31.065,0-54.438-8.703-69.469-25.855c-2.74-3.129-4.958-6.281-6.747-9.264h152.426
			C381.179,486.545,379.253,489.338,376.92,492.117z"/>
		<path d="M247.148,270.44c20.621,0,37.4-16.78,37.4-37.4c0-20.621-16.78-37.4-37.4-37.4s-37.4,16.78-37.4,37.4
			C209.754,253.66,226.528,270.44,247.148,270.44z M247.148,224.693c4.604,0,8.347,3.744,8.347,8.347
			c0,4.603-3.743,8.347-8.347,8.347s-8.347-3.744-8.347-8.347C238.808,228.437,242.551,224.693,247.148,224.693z"/>
		<path d="M365.965,270.44c20.62,0,37.399-16.78,37.399-37.4c0-20.621-16.773-37.4-37.399-37.4c-20.621,0-37.4,16.78-37.4,37.4
			C328.564,253.66,345.344,270.44,365.965,270.44z M365.965,224.693c4.603,0,8.347,3.744,8.347,8.347
			c0,4.603-3.744,8.347-8.347,8.347c-4.604,0-8.348-3.744-8.348-8.347C357.617,228.437,361.361,224.693,365.965,224.693z"/>
		<path d="M261.188,385.793c0,0,35.17-7,25.006-36.74C286.194,349.053,255.713,362.422,261.188,385.793z"/>
		<path d="M351.925,385.793c5.47-23.371-25.006-36.74-25.006-36.74C316.761,378.793,351.925,385.793,351.925,385.793z"/>
	</g>
</g>
<g>
</g>
<g>
</g>
<g>
</g>
<g>
</g>
<g>
</g>
<g>
</g>
<g>
</g>
<g>
</g>
<g>
</g>
<g>
</g>
<g>
</g>
<g>
</g>
<g>
</g>
<g>
</g>
<g>
</g>
</svg>
